<svg width="190" height="93" viewBox="0 0 190 93" fill="none" xmlns="http://www.w3.org/2000/svg">
<path d="M37.9697 67.68C36.663 67.68 35.503 67.44 34.4897 66.96C33.503 66.48 32.7297 65.76 32.1697 64.8C31.6097 63.84 31.3297 62.6667 31.3297 61.28C31.3297 60.0267 31.583 58.6533 32.0897 57.16C32.5964 55.6667 33.5164 54.1067 34.8497 52.48C36.183 50.8533 38.103 49.24 40.6097 47.64V34.4H34.5697V31H44.4097V60.64C44.4097 62.08 44.143 63.32 43.6097 64.36C43.103 65.4267 42.3697 66.24 41.4097 66.8C40.4497 67.3867 39.303 67.68 37.9697 67.68ZM37.6897 64.24C38.2497 64.24 38.743 64.1067 39.1697 63.84C39.623 63.6 39.9697 63.2133 40.2097 62.68C40.4497 62.1467 40.5697 61.4933 40.5697 60.72V51.6C39.103 52.6933 37.9564 53.7733 37.1297 54.84C36.303 55.88 35.7297 56.9067 35.4097 57.92C35.0897 58.9067 34.9297 59.8933 34.9297 60.88C34.9297 62 35.2097 62.84 35.7697 63.4C36.3297 63.96 36.9697 64.24 37.6897 64.24ZM47.5331 59L57.0531 33.68C57.4798 32.5867 58.0665 31.7867 58.8131 31.28C59.5598 30.7733 60.4265 30.52 61.4131 30.52C62.3998 30.52 63.2665 30.7733 64.0131 31.28C64.7865 31.76 65.3731 32.5467 65.7731 33.64L75.3331 59H71.1331L68.6931 52.24H54.0531L51.5731 59H47.5331ZM55.2531 48.84H67.5331L62.5331 34.96C62.3998 34.6133 62.2531 34.3467 62.0931 34.16C61.9331 33.9733 61.7065 33.88 61.4131 33.88C61.1465 33.88 60.9331 33.9733 60.7731 34.16C60.6131 34.3467 60.4798 34.6133 60.3731 34.96L55.2531 48.84ZM96.6359 59.48C95.1426 59.48 93.8226 59.1467 92.6759 58.48C91.5559 57.7867 90.6759 56.8533 90.0359 55.68C89.3959 54.5067 89.0759 53.1867 89.0759 51.72V37.76C89.0759 37.04 88.9026 36.3867 88.5559 35.8C88.2093 35.2133 87.7426 34.7467 87.1559 34.4C86.5693 34.0533 85.9293 33.88 85.2359 33.88C84.5426 33.88 83.9026 34.0533 83.3159 34.4C82.7559 34.7467 82.3026 35.2133 81.9559 35.8C81.6359 36.3867 81.4759 37.04 81.4759 37.76V59H77.6359V38.28C77.6359 36.8133 77.9559 35.4933 78.5959 34.32C79.2359 33.1467 80.1293 32.2267 81.2759 31.56C82.4226 30.8667 83.7426 30.52 85.2359 30.52C86.7559 30.52 88.0893 30.8667 89.2359 31.56C90.3826 32.2267 91.2759 33.1467 91.9159 34.32C92.5559 35.4933 92.8759 36.8133 92.8759 38.28V52.24C92.8759 52.96 93.0493 53.6133 93.3959 54.2C93.7426 54.7867 94.1959 55.2533 94.7559 55.6C95.3426 55.9467 95.9693 56.12 96.6359 56.12C97.3026 56.12 97.9159 55.9467 98.4759 55.6C99.0359 55.2533 99.4759 54.7867 99.7959 54.2C100.143 53.6133 100.316 52.96 100.316 52.24V31H104.156V51.72C104.156 53.1867 103.836 54.5067 103.196 55.68C102.556 56.8533 101.676 57.7867 100.556 58.48C99.4359 59.1467 98.1293 59.48 96.6359 59.48ZM120.985 59.48C118.825 59.48 116.905 59.0267 115.225 58.12C113.545 57.2133 112.225 55.9067 111.265 54.2C110.332 52.4933 109.865 50.48 109.865 48.16V31H113.705V48.56C113.705 49.92 113.999 51.1733 114.585 52.32C115.172 53.4667 116.012 54.3867 117.105 55.08C118.199 55.7467 119.492 56.08 120.985 56.08C122.479 56.08 123.772 55.7467 124.865 55.08C125.959 54.3867 126.785 53.4667 127.345 52.32C127.932 51.1733 128.225 49.92 128.225 48.56V31H132.065V48.16C132.065 50.48 131.585 52.4933 130.625 54.2C129.692 55.9067 128.385 57.2133 126.705 58.12C125.052 59.0267 123.145 59.48 120.985 59.48ZM137.912 59V55.6H150.032C150.966 55.6 151.766 55.3867 152.432 54.96C153.099 54.5067 153.619 53.9333 153.992 53.24C154.366 52.5467 154.552 51.8133 154.552 51.04C154.552 50.24 154.366 49.5067 153.992 48.84C153.646 48.1467 153.139 47.6 152.472 47.2C151.832 46.7733 151.046 46.56 150.112 46.56H144.832C143.259 46.56 141.872 46.24 140.672 45.6C139.472 44.9333 138.526 44.0267 137.832 42.88C137.166 41.7067 136.832 40.3867 136.832 38.92C136.832 37.4267 137.152 36.08 137.792 34.88C138.459 33.68 139.379 32.7333 140.552 32.04C141.752 31.3467 143.126 31 144.672 31H156.552V34.4H145.032C144.152 34.4 143.379 34.6133 142.712 35.04C142.046 35.44 141.539 35.9733 141.192 36.64C140.846 37.28 140.672 37.9733 140.672 38.72C140.672 39.44 140.832 40.1333 141.152 40.8C141.499 41.44 141.992 41.96 142.632 42.36C143.299 42.76 144.059 42.96 144.912 42.96H150.312C151.992 42.96 153.432 43.2933 154.632 43.96C155.832 44.6267 156.752 45.5333 157.392 46.68C158.032 47.8267 158.352 49.1333 158.352 50.6C158.352 52.2267 158.019 53.68 157.352 54.96C156.712 56.2133 155.792 57.2 154.592 57.92C153.392 58.64 152.019 59 150.472 59H137.912Z" fill="black"/>
</svg>
